<mxfile host="app.diagrams.net" modified="2022-08-20T17:53:20.067Z" agent="5.0 (Windows NT 10.0; Win64; x64) AppleWebKit/537.36 (KHTML, like Gecko) Chrome/104.0.0.0 Safari/537.36" etag="Yp3JULxyHCPGcX4HnMdQ" version="20.2.5" type="github">
  <diagram id="Zjc5kxPF3DXFodzatWTs" name="Page-1">
    <mxGraphModel dx="1633" dy="3683" grid="1" gridSize="10" guides="1" tooltips="1" connect="1" arrows="1" fold="1" page="1" pageScale="1" pageWidth="850" pageHeight="1100" math="0" shadow="0">
      <root>
        <mxCell id="0" />
        <mxCell id="1" parent="0" />
        <mxCell id="ApNunxE2ewuxEMOYfsAa-14" value="" style="edgeStyle=orthogonalEdgeStyle;rounded=0;orthogonalLoop=1;jettySize=auto;html=1;" parent="1" target="ApNunxE2ewuxEMOYfsAa-2" edge="1">
          <mxGeometry relative="1" as="geometry">
            <mxPoint x="230" y="-1520" as="sourcePoint" />
          </mxGeometry>
        </mxCell>
        <mxCell id="ApNunxE2ewuxEMOYfsAa-4" value="" style="edgeStyle=orthogonalEdgeStyle;rounded=0;orthogonalLoop=1;jettySize=auto;html=1;" parent="1" source="ApNunxE2ewuxEMOYfsAa-2" target="ApNunxE2ewuxEMOYfsAa-3" edge="1">
          <mxGeometry relative="1" as="geometry" />
        </mxCell>
        <mxCell id="ApNunxE2ewuxEMOYfsAa-2" value="" style="rounded=0;whiteSpace=wrap;html=1;" parent="1" vertex="1">
          <mxGeometry x="180" y="-1420" width="100" height="60" as="geometry" />
        </mxCell>
        <mxCell id="ApNunxE2ewuxEMOYfsAa-6" value="" style="edgeStyle=orthogonalEdgeStyle;rounded=0;orthogonalLoop=1;jettySize=auto;html=1;" parent="1" source="ApNunxE2ewuxEMOYfsAa-3" target="ApNunxE2ewuxEMOYfsAa-5" edge="1">
          <mxGeometry relative="1" as="geometry" />
        </mxCell>
        <mxCell id="ApNunxE2ewuxEMOYfsAa-3" value="" style="rounded=0;whiteSpace=wrap;html=1;" parent="1" vertex="1">
          <mxGeometry x="180" y="-1280" width="100" height="60" as="geometry" />
        </mxCell>
        <mxCell id="ApNunxE2ewuxEMOYfsAa-8" value="" style="edgeStyle=orthogonalEdgeStyle;rounded=0;orthogonalLoop=1;jettySize=auto;html=1;" parent="1" source="ApNunxE2ewuxEMOYfsAa-5" target="ApNunxE2ewuxEMOYfsAa-7" edge="1">
          <mxGeometry relative="1" as="geometry" />
        </mxCell>
        <mxCell id="ApNunxE2ewuxEMOYfsAa-5" value="" style="shape=parallelogram;perimeter=parallelogramPerimeter;whiteSpace=wrap;html=1;fixedSize=1;rounded=0;" parent="1" vertex="1">
          <mxGeometry x="170" y="-1140" width="120" height="60" as="geometry" />
        </mxCell>
        <mxCell id="ApNunxE2ewuxEMOYfsAa-10" value="" style="edgeStyle=orthogonalEdgeStyle;rounded=0;orthogonalLoop=1;jettySize=auto;html=1;" parent="1" source="ApNunxE2ewuxEMOYfsAa-7" target="ApNunxE2ewuxEMOYfsAa-9" edge="1">
          <mxGeometry relative="1" as="geometry" />
        </mxCell>
        <mxCell id="m10ATLe6vFJ1hpujj1bK-2" value="" style="edgeStyle=orthogonalEdgeStyle;curved=1;rounded=0;orthogonalLoop=1;jettySize=auto;html=1;" edge="1" parent="1" source="ApNunxE2ewuxEMOYfsAa-7" target="m10ATLe6vFJ1hpujj1bK-1">
          <mxGeometry relative="1" as="geometry" />
        </mxCell>
        <mxCell id="ApNunxE2ewuxEMOYfsAa-7" value="" style="rhombus;whiteSpace=wrap;html=1;rounded=0;" parent="1" vertex="1">
          <mxGeometry x="190" y="-1010" width="80" height="80" as="geometry" />
        </mxCell>
        <mxCell id="ApNunxE2ewuxEMOYfsAa-12" value="" style="edgeStyle=orthogonalEdgeStyle;rounded=0;orthogonalLoop=1;jettySize=auto;html=1;" parent="1" source="ApNunxE2ewuxEMOYfsAa-9" target="ApNunxE2ewuxEMOYfsAa-11" edge="1">
          <mxGeometry relative="1" as="geometry" />
        </mxCell>
        <mxCell id="ApNunxE2ewuxEMOYfsAa-9" value="" style="whiteSpace=wrap;html=1;rounded=0;" parent="1" vertex="1">
          <mxGeometry x="170" y="-840" width="120" height="60" as="geometry" />
        </mxCell>
        <mxCell id="ApNunxE2ewuxEMOYfsAa-11" value="" style="whiteSpace=wrap;html=1;rounded=0;" parent="1" vertex="1">
          <mxGeometry x="170" y="-700" width="120" height="60" as="geometry" />
        </mxCell>
        <mxCell id="ApNunxE2ewuxEMOYfsAa-15" value="" style="strokeWidth=2;html=1;shape=mxgraph.flowchart.annotation_1;align=left;pointerEvents=1;" parent="1" vertex="1">
          <mxGeometry x="100" y="-970" width="60" height="310" as="geometry" />
        </mxCell>
        <mxCell id="m10ATLe6vFJ1hpujj1bK-4" value="" style="edgeStyle=orthogonalEdgeStyle;curved=1;rounded=0;orthogonalLoop=1;jettySize=auto;html=1;" edge="1" parent="1" source="m10ATLe6vFJ1hpujj1bK-1" target="m10ATLe6vFJ1hpujj1bK-3">
          <mxGeometry relative="1" as="geometry" />
        </mxCell>
        <mxCell id="m10ATLe6vFJ1hpujj1bK-8" value="" style="edgeStyle=orthogonalEdgeStyle;curved=1;rounded=0;orthogonalLoop=1;jettySize=auto;html=1;" edge="1" parent="1" source="m10ATLe6vFJ1hpujj1bK-1" target="m10ATLe6vFJ1hpujj1bK-7">
          <mxGeometry relative="1" as="geometry" />
        </mxCell>
        <mxCell id="m10ATLe6vFJ1hpujj1bK-1" value="" style="rhombus;whiteSpace=wrap;html=1;rounded=0;" vertex="1" parent="1">
          <mxGeometry x="370" y="-1010" width="80" height="80" as="geometry" />
        </mxCell>
        <mxCell id="m10ATLe6vFJ1hpujj1bK-6" value="" style="edgeStyle=orthogonalEdgeStyle;curved=1;rounded=0;orthogonalLoop=1;jettySize=auto;html=1;" edge="1" parent="1" source="m10ATLe6vFJ1hpujj1bK-3" target="m10ATLe6vFJ1hpujj1bK-5">
          <mxGeometry relative="1" as="geometry" />
        </mxCell>
        <mxCell id="m10ATLe6vFJ1hpujj1bK-3" value="" style="whiteSpace=wrap;html=1;rounded=0;" vertex="1" parent="1">
          <mxGeometry x="350" y="-840" width="120" height="60" as="geometry" />
        </mxCell>
        <mxCell id="m10ATLe6vFJ1hpujj1bK-5" value="" style="whiteSpace=wrap;html=1;rounded=0;" vertex="1" parent="1">
          <mxGeometry x="350" y="-700" width="120" height="60" as="geometry" />
        </mxCell>
        <mxCell id="m10ATLe6vFJ1hpujj1bK-10" value="" style="edgeStyle=orthogonalEdgeStyle;curved=1;rounded=0;orthogonalLoop=1;jettySize=auto;html=1;" edge="1" parent="1" source="m10ATLe6vFJ1hpujj1bK-7" target="m10ATLe6vFJ1hpujj1bK-9">
          <mxGeometry relative="1" as="geometry" />
        </mxCell>
        <mxCell id="m10ATLe6vFJ1hpujj1bK-14" value="" style="edgeStyle=orthogonalEdgeStyle;curved=1;rounded=0;orthogonalLoop=1;jettySize=auto;html=1;" edge="1" parent="1" source="m10ATLe6vFJ1hpujj1bK-7" target="m10ATLe6vFJ1hpujj1bK-13">
          <mxGeometry relative="1" as="geometry">
            <Array as="points">
              <mxPoint x="670" y="-980" />
              <mxPoint x="670" y="-980" />
            </Array>
          </mxGeometry>
        </mxCell>
        <mxCell id="m10ATLe6vFJ1hpujj1bK-7" value="" style="rhombus;whiteSpace=wrap;html=1;rounded=0;" vertex="1" parent="1">
          <mxGeometry x="550" y="-1010" width="80" height="80" as="geometry" />
        </mxCell>
        <mxCell id="m10ATLe6vFJ1hpujj1bK-12" value="" style="edgeStyle=orthogonalEdgeStyle;curved=1;rounded=0;orthogonalLoop=1;jettySize=auto;html=1;" edge="1" parent="1" source="m10ATLe6vFJ1hpujj1bK-9" target="m10ATLe6vFJ1hpujj1bK-11">
          <mxGeometry relative="1" as="geometry" />
        </mxCell>
        <mxCell id="m10ATLe6vFJ1hpujj1bK-9" value="" style="whiteSpace=wrap;html=1;rounded=0;" vertex="1" parent="1">
          <mxGeometry x="530" y="-845" width="120" height="60" as="geometry" />
        </mxCell>
        <mxCell id="m10ATLe6vFJ1hpujj1bK-11" value="" style="whiteSpace=wrap;html=1;rounded=0;" vertex="1" parent="1">
          <mxGeometry x="530" y="-710" width="120" height="60" as="geometry" />
        </mxCell>
        <mxCell id="m10ATLe6vFJ1hpujj1bK-16" value="" style="edgeStyle=orthogonalEdgeStyle;curved=1;rounded=0;orthogonalLoop=1;jettySize=auto;html=1;" edge="1" parent="1" source="m10ATLe6vFJ1hpujj1bK-13" target="m10ATLe6vFJ1hpujj1bK-15">
          <mxGeometry relative="1" as="geometry" />
        </mxCell>
        <mxCell id="m10ATLe6vFJ1hpujj1bK-13" value="" style="shape=parallelogram;perimeter=parallelogramPerimeter;whiteSpace=wrap;html=1;fixedSize=1;rounded=0;" vertex="1" parent="1">
          <mxGeometry x="710" y="-1000" width="120" height="60" as="geometry" />
        </mxCell>
        <mxCell id="m10ATLe6vFJ1hpujj1bK-15" value="" style="strokeWidth=2;html=1;shape=mxgraph.flowchart.terminator;whiteSpace=wrap;" vertex="1" parent="1">
          <mxGeometry x="720" y="-840" width="100" height="60" as="geometry" />
        </mxCell>
        <mxCell id="m10ATLe6vFJ1hpujj1bK-17" value="" style="strokeWidth=2;html=1;shape=mxgraph.flowchart.terminator;whiteSpace=wrap;" vertex="1" parent="1">
          <mxGeometry x="180" y="-1590" width="100" height="60" as="geometry" />
        </mxCell>
      </root>
    </mxGraphModel>
  </diagram>
</mxfile>
